<mxfile host="Electron" agent="Mozilla/5.0 (Windows NT 10.0; Win64; x64) AppleWebKit/537.36 (KHTML, like Gecko) draw.io/24.7.5 Chrome/126.0.6478.183 Electron/31.3.0 Safari/537.36" version="24.7.5">
  <diagram id="C5RBs43oDa-KdzZeNtuy" name="Page-1">
    <mxGraphModel dx="3760" dy="2942" grid="1" gridSize="10" guides="1" tooltips="1" connect="1" arrows="1" fold="1" page="1" pageScale="1" pageWidth="827" pageHeight="1169" math="0" shadow="0">
      <root>
        <mxCell id="WIyWlLk6GJQsqaUBKTNV-0" />
        <mxCell id="WIyWlLk6GJQsqaUBKTNV-1" parent="WIyWlLk6GJQsqaUBKTNV-0" />
        <mxCell id="hMzGG3SRQMadaM1K5L7l-33" value="" style="edgeStyle=orthogonalEdgeStyle;rounded=0;orthogonalLoop=1;jettySize=auto;html=1;endArrow=ERmany;endFill=0;startArrow=none;startFill=0;exitX=0;exitY=0.5;exitDx=0;exitDy=0;" parent="WIyWlLk6GJQsqaUBKTNV-1" source="B8lW5Eqvo94ZUXRMh3HQ-15" target="KCWtiNqGUcv64G_6t2jP-0" edge="1">
          <mxGeometry relative="1" as="geometry">
            <mxPoint x="430" y="-340" as="sourcePoint" />
            <mxPoint x="250" y="-294" as="targetPoint" />
            <Array as="points">
              <mxPoint x="390" y="-660" />
              <mxPoint x="340" y="-660" />
              <mxPoint x="340" y="-400" />
            </Array>
          </mxGeometry>
        </mxCell>
        <mxCell id="4C2MmLSskRiw0caZgqW9-12" style="edgeStyle=orthogonalEdgeStyle;rounded=0;orthogonalLoop=1;jettySize=auto;html=1;exitX=0.5;exitY=1;exitDx=0;exitDy=0;entryX=0.5;entryY=0;entryDx=0;entryDy=0;endArrow=none;endFill=0;startArrow=ERmany;startFill=0;" parent="WIyWlLk6GJQsqaUBKTNV-1" source="zkfFHV4jXpPFQw0GAbJ--17" target="4C2MmLSskRiw0caZgqW9-10" edge="1">
          <mxGeometry relative="1" as="geometry">
            <mxPoint x="670" y="-460" as="targetPoint" />
          </mxGeometry>
        </mxCell>
        <mxCell id="zkfFHV4jXpPFQw0GAbJ--17" value="Employee" style="swimlane;fontStyle=0;align=center;verticalAlign=top;childLayout=stackLayout;horizontal=1;startSize=26;horizontalStack=0;resizeParent=1;resizeLast=0;collapsible=1;marginBottom=0;rounded=0;shadow=0;strokeWidth=1;fillColor=#e1d5e7;strokeColor=#9673a6;" parent="WIyWlLk6GJQsqaUBKTNV-1" vertex="1">
          <mxGeometry x="610" y="-730" width="160" height="138" as="geometry">
            <mxRectangle x="550" y="140" width="160" height="26" as="alternateBounds" />
          </mxGeometry>
        </mxCell>
        <mxCell id="zkfFHV4jXpPFQw0GAbJ--18" value="Personal Info" style="text;align=left;verticalAlign=top;spacingLeft=4;spacingRight=4;overflow=hidden;rotatable=0;points=[[0,0.5],[1,0.5]];portConstraint=eastwest;" parent="zkfFHV4jXpPFQw0GAbJ--17" vertex="1">
          <mxGeometry y="26" width="160" height="26" as="geometry" />
        </mxCell>
        <mxCell id="hMzGG3SRQMadaM1K5L7l-12" value="Availability Info" style="text;align=left;verticalAlign=top;spacingLeft=4;spacingRight=4;overflow=hidden;rotatable=0;points=[[0,0.5],[1,0.5]];portConstraint=eastwest;rounded=0;shadow=0;html=0;" parent="zkfFHV4jXpPFQw0GAbJ--17" vertex="1">
          <mxGeometry y="52" width="160" height="26" as="geometry" />
        </mxCell>
        <mxCell id="hMzGG3SRQMadaM1K5L7l-11" value="work Category" style="text;align=left;verticalAlign=top;spacingLeft=4;spacingRight=4;overflow=hidden;rotatable=0;points=[[0,0.5],[1,0.5]];portConstraint=eastwest;rounded=0;shadow=0;html=0;" parent="zkfFHV4jXpPFQw0GAbJ--17" vertex="1">
          <mxGeometry y="78" width="160" height="26" as="geometry" />
        </mxCell>
        <mxCell id="zkfFHV4jXpPFQw0GAbJ--23" value="" style="line;html=1;strokeWidth=1;align=left;verticalAlign=middle;spacingTop=-1;spacingLeft=3;spacingRight=3;rotatable=0;labelPosition=right;points=[];portConstraint=eastwest;" parent="zkfFHV4jXpPFQw0GAbJ--17" vertex="1">
          <mxGeometry y="104" width="160" height="8" as="geometry" />
        </mxCell>
        <mxCell id="hMzGG3SRQMadaM1K5L7l-51" style="edgeStyle=orthogonalEdgeStyle;rounded=0;orthogonalLoop=1;jettySize=auto;html=1;exitX=0.5;exitY=1;exitDx=0;exitDy=0;endArrow=none;endFill=0;" parent="WIyWlLk6GJQsqaUBKTNV-1" source="oSte4DSFHgH5YUquC0uS-13" target="hMzGG3SRQMadaM1K5L7l-45" edge="1">
          <mxGeometry relative="1" as="geometry">
            <Array as="points">
              <mxPoint x="130" y="130" />
            </Array>
            <mxPoint x="-200" y="190" as="targetPoint" />
          </mxGeometry>
        </mxCell>
        <mxCell id="g0uIdzXeAHVQxOvOFDWN-2" style="edgeStyle=orthogonalEdgeStyle;rounded=0;orthogonalLoop=1;jettySize=auto;html=1;exitX=0.5;exitY=0;exitDx=0;exitDy=0;" edge="1" parent="WIyWlLk6GJQsqaUBKTNV-1" source="KCWtiNqGUcv64G_6t2jP-0">
          <mxGeometry relative="1" as="geometry">
            <mxPoint x="180.5" y="-620" as="targetPoint" />
          </mxGeometry>
        </mxCell>
        <mxCell id="KCWtiNqGUcv64G_6t2jP-0" value="Project" style="swimlane;fontStyle=0;align=center;verticalAlign=top;childLayout=stackLayout;horizontal=1;startSize=26;horizontalStack=0;resizeParent=1;resizeLast=0;collapsible=1;marginBottom=0;rounded=0;shadow=0;strokeWidth=1;fillColor=#e1d5e7;strokeColor=#9673a6;" parent="WIyWlLk6GJQsqaUBKTNV-1" vertex="1">
          <mxGeometry x="80" y="-454" width="200" height="244" as="geometry">
            <mxRectangle x="550" y="140" width="160" height="26" as="alternateBounds" />
          </mxGeometry>
        </mxCell>
        <mxCell id="KCWtiNqGUcv64G_6t2jP-1" value="Project Name" style="text;align=left;verticalAlign=top;spacingLeft=4;spacingRight=4;overflow=hidden;rotatable=0;points=[[0,0.5],[1,0.5]];portConstraint=eastwest;" parent="KCWtiNqGUcv64G_6t2jP-0" vertex="1">
          <mxGeometry y="26" width="200" height="26" as="geometry" />
        </mxCell>
        <mxCell id="hMzGG3SRQMadaM1K5L7l-1" value="Proposing Info" style="text;align=left;verticalAlign=top;spacingLeft=4;spacingRight=4;overflow=hidden;rotatable=0;points=[[0,0.5],[1,0.5]];portConstraint=eastwest;rounded=0;shadow=0;html=0;" parent="KCWtiNqGUcv64G_6t2jP-0" vertex="1">
          <mxGeometry y="52" width="200" height="26" as="geometry" />
        </mxCell>
        <mxCell id="hMzGG3SRQMadaM1K5L7l-2" value="Project InfoÂ " style="text;align=left;verticalAlign=top;spacingLeft=4;spacingRight=4;overflow=hidden;rotatable=0;points=[[0,0.5],[1,0.5]];portConstraint=eastwest;rounded=0;shadow=0;html=0;" parent="KCWtiNqGUcv64G_6t2jP-0" vertex="1">
          <mxGeometry y="78" width="200" height="26" as="geometry" />
        </mxCell>
        <mxCell id="KCWtiNqGUcv64G_6t2jP-2" value="Project Status" style="text;align=left;verticalAlign=top;spacingLeft=4;spacingRight=4;overflow=hidden;rotatable=0;points=[[0,0.5],[1,0.5]];portConstraint=eastwest;rounded=0;shadow=0;html=0;" parent="KCWtiNqGUcv64G_6t2jP-0" vertex="1">
          <mxGeometry y="104" width="200" height="26" as="geometry" />
        </mxCell>
        <mxCell id="hMzGG3SRQMadaM1K5L7l-0" value="Date Info" style="text;align=left;verticalAlign=top;spacingLeft=4;spacingRight=4;overflow=hidden;rotatable=0;points=[[0,0.5],[1,0.5]];portConstraint=eastwest;rounded=0;shadow=0;html=0;" parent="KCWtiNqGUcv64G_6t2jP-0" vertex="1">
          <mxGeometry y="130" width="200" height="26" as="geometry" />
        </mxCell>
        <mxCell id="g0uIdzXeAHVQxOvOFDWN-1" value="Classification Info" style="text;align=left;verticalAlign=top;spacingLeft=4;spacingRight=4;overflow=hidden;rotatable=0;points=[[0,0.5],[1,0.5]];portConstraint=eastwest;rounded=0;shadow=0;html=0;" vertex="1" parent="KCWtiNqGUcv64G_6t2jP-0">
          <mxGeometry y="156" width="200" height="26" as="geometry" />
        </mxCell>
        <mxCell id="KCWtiNqGUcv64G_6t2jP-3" value="" style="line;html=1;strokeWidth=1;align=left;verticalAlign=middle;spacingTop=-1;spacingLeft=3;spacingRight=3;rotatable=0;labelPosition=right;points=[];portConstraint=eastwest;" parent="KCWtiNqGUcv64G_6t2jP-0" vertex="1">
          <mxGeometry y="182" width="200" height="8" as="geometry" />
        </mxCell>
        <mxCell id="KCWtiNqGUcv64G_6t2jP-4" value="Step" style="swimlane;fontStyle=0;align=center;verticalAlign=top;childLayout=stackLayout;horizontal=1;startSize=26;horizontalStack=0;resizeParent=1;resizeLast=0;collapsible=1;marginBottom=0;rounded=0;shadow=0;strokeWidth=1;fillColor=#e1d5e7;strokeColor=#9673a6;" parent="WIyWlLk6GJQsqaUBKTNV-1" vertex="1">
          <mxGeometry x="620" y="-220" width="160" height="120" as="geometry">
            <mxRectangle x="550" y="140" width="160" height="26" as="alternateBounds" />
          </mxGeometry>
        </mxCell>
        <mxCell id="KCWtiNqGUcv64G_6t2jP-5" value="Step Info" style="text;align=left;verticalAlign=top;spacingLeft=4;spacingRight=4;overflow=hidden;rotatable=0;points=[[0,0.5],[1,0.5]];portConstraint=eastwest;" parent="KCWtiNqGUcv64G_6t2jP-4" vertex="1">
          <mxGeometry y="26" width="160" height="26" as="geometry" />
        </mxCell>
        <mxCell id="hMzGG3SRQMadaM1K5L7l-10" value="Date Info" style="text;align=left;verticalAlign=top;spacingLeft=4;spacingRight=4;overflow=hidden;rotatable=0;points=[[0,0.5],[1,0.5]];portConstraint=eastwest;rounded=0;shadow=0;html=0;" parent="KCWtiNqGUcv64G_6t2jP-4" vertex="1">
          <mxGeometry y="52" width="160" height="26" as="geometry" />
        </mxCell>
        <mxCell id="KCWtiNqGUcv64G_6t2jP-7" value="" style="line;html=1;strokeWidth=1;align=left;verticalAlign=middle;spacingTop=-1;spacingLeft=3;spacingRight=3;rotatable=0;labelPosition=right;points=[];portConstraint=eastwest;" parent="KCWtiNqGUcv64G_6t2jP-4" vertex="1">
          <mxGeometry y="78" width="160" height="8" as="geometry" />
        </mxCell>
        <mxCell id="KCWtiNqGUcv64G_6t2jP-12" value="Customer" style="swimlane;fontStyle=0;align=center;verticalAlign=top;childLayout=stackLayout;horizontal=1;startSize=26;horizontalStack=0;resizeParent=1;resizeLast=0;collapsible=1;marginBottom=0;rounded=0;shadow=0;strokeWidth=1;fillColor=#e1d5e7;strokeColor=#9673a6;" parent="WIyWlLk6GJQsqaUBKTNV-1" vertex="1">
          <mxGeometry x="-370" y="-781" width="160" height="160" as="geometry">
            <mxRectangle x="550" y="140" width="160" height="26" as="alternateBounds" />
          </mxGeometry>
        </mxCell>
        <mxCell id="KCWtiNqGUcv64G_6t2jP-13" value="Customer Name" style="text;align=left;verticalAlign=top;spacingLeft=4;spacingRight=4;overflow=hidden;rotatable=0;points=[[0,0.5],[1,0.5]];portConstraint=eastwest;" parent="KCWtiNqGUcv64G_6t2jP-12" vertex="1">
          <mxGeometry y="26" width="160" height="26" as="geometry" />
        </mxCell>
        <mxCell id="hMzGG3SRQMadaM1K5L7l-13" value="Delegater" style="text;align=left;verticalAlign=top;spacingLeft=4;spacingRight=4;overflow=hidden;rotatable=0;points=[[0,0.5],[1,0.5]];portConstraint=eastwest;rounded=0;shadow=0;html=0;" parent="KCWtiNqGUcv64G_6t2jP-12" vertex="1">
          <mxGeometry y="52" width="160" height="26" as="geometry" />
        </mxCell>
        <mxCell id="KCWtiNqGUcv64G_6t2jP-14" value="Contacrt Info" style="text;align=left;verticalAlign=top;spacingLeft=4;spacingRight=4;overflow=hidden;rotatable=0;points=[[0,0.5],[1,0.5]];portConstraint=eastwest;rounded=0;shadow=0;html=0;" parent="KCWtiNqGUcv64G_6t2jP-12" vertex="1">
          <mxGeometry y="78" width="160" height="26" as="geometry" />
        </mxCell>
        <mxCell id="hMzGG3SRQMadaM1K5L7l-14" value="Address" style="text;align=left;verticalAlign=top;spacingLeft=4;spacingRight=4;overflow=hidden;rotatable=0;points=[[0,0.5],[1,0.5]];portConstraint=eastwest;rounded=0;shadow=0;html=0;" parent="KCWtiNqGUcv64G_6t2jP-12" vertex="1">
          <mxGeometry y="104" width="160" height="26" as="geometry" />
        </mxCell>
        <mxCell id="KCWtiNqGUcv64G_6t2jP-15" value="" style="line;html=1;strokeWidth=1;align=left;verticalAlign=middle;spacingTop=-1;spacingLeft=3;spacingRight=3;rotatable=0;labelPosition=right;points=[];portConstraint=eastwest;" parent="KCWtiNqGUcv64G_6t2jP-12" vertex="1">
          <mxGeometry y="130" width="160" height="8" as="geometry" />
        </mxCell>
        <mxCell id="KCWtiNqGUcv64G_6t2jP-16" value="Finicial Spending" style="swimlane;fontStyle=0;align=center;verticalAlign=top;childLayout=stackLayout;horizontal=1;startSize=26;horizontalStack=0;resizeParent=1;resizeLast=0;collapsible=1;marginBottom=0;rounded=0;shadow=0;strokeWidth=1;fillColor=#e1d5e7;strokeColor=#9673a6;" parent="WIyWlLk6GJQsqaUBKTNV-1" vertex="1">
          <mxGeometry x="320" y="140" width="160" height="150" as="geometry">
            <mxRectangle x="550" y="140" width="160" height="26" as="alternateBounds" />
          </mxGeometry>
        </mxCell>
        <mxCell id="KCWtiNqGUcv64G_6t2jP-18" value="Spendinf Info" style="text;align=left;verticalAlign=top;spacingLeft=4;spacingRight=4;overflow=hidden;rotatable=0;points=[[0,0.5],[1,0.5]];portConstraint=eastwest;rounded=0;shadow=0;html=0;" parent="KCWtiNqGUcv64G_6t2jP-16" vertex="1">
          <mxGeometry y="26" width="160" height="26" as="geometry" />
        </mxCell>
        <mxCell id="hMzGG3SRQMadaM1K5L7l-15" value="Internal Purchase Price" style="text;align=left;verticalAlign=top;spacingLeft=4;spacingRight=4;overflow=hidden;rotatable=0;points=[[0,0.5],[1,0.5]];portConstraint=eastwest;rounded=0;shadow=0;html=0;" parent="KCWtiNqGUcv64G_6t2jP-16" vertex="1">
          <mxGeometry y="52" width="160" height="26" as="geometry" />
        </mxCell>
        <mxCell id="hMzGG3SRQMadaM1K5L7l-16" value="external Purchase" style="text;align=left;verticalAlign=top;spacingLeft=4;spacingRight=4;overflow=hidden;rotatable=0;points=[[0,0.5],[1,0.5]];portConstraint=eastwest;rounded=0;shadow=0;html=0;" parent="KCWtiNqGUcv64G_6t2jP-16" vertex="1">
          <mxGeometry y="78" width="160" height="26" as="geometry" />
        </mxCell>
        <mxCell id="hMzGG3SRQMadaM1K5L7l-17" value="Type Money" style="text;align=left;verticalAlign=top;spacingLeft=4;spacingRight=4;overflow=hidden;rotatable=0;points=[[0,0.5],[1,0.5]];portConstraint=eastwest;rounded=0;shadow=0;html=0;" parent="KCWtiNqGUcv64G_6t2jP-16" vertex="1">
          <mxGeometry y="104" width="160" height="26" as="geometry" />
        </mxCell>
        <mxCell id="KCWtiNqGUcv64G_6t2jP-19" value="" style="line;html=1;strokeWidth=1;align=left;verticalAlign=middle;spacingTop=-1;spacingLeft=3;spacingRight=3;rotatable=0;labelPosition=right;points=[];portConstraint=eastwest;" parent="KCWtiNqGUcv64G_6t2jP-16" vertex="1">
          <mxGeometry y="130" width="160" height="8" as="geometry" />
        </mxCell>
        <mxCell id="KCWtiNqGUcv64G_6t2jP-20" value="Project Type" style="swimlane;fontStyle=0;align=center;verticalAlign=top;childLayout=stackLayout;horizontal=1;startSize=26;horizontalStack=0;resizeParent=1;resizeLast=0;collapsible=1;marginBottom=0;rounded=0;shadow=0;strokeWidth=1;fillColor=#e1d5e7;strokeColor=#9673a6;" parent="WIyWlLk6GJQsqaUBKTNV-1" vertex="1">
          <mxGeometry x="-580" y="-190" width="160" height="140" as="geometry">
            <mxRectangle x="550" y="140" width="160" height="26" as="alternateBounds" />
          </mxGeometry>
        </mxCell>
        <mxCell id="KCWtiNqGUcv64G_6t2jP-21" value="Type Info" style="text;align=left;verticalAlign=top;spacingLeft=4;spacingRight=4;overflow=hidden;rotatable=0;points=[[0,0.5],[1,0.5]];portConstraint=eastwest;" parent="KCWtiNqGUcv64G_6t2jP-20" vertex="1">
          <mxGeometry y="26" width="160" height="26" as="geometry" />
        </mxCell>
        <mxCell id="hMzGG3SRQMadaM1K5L7l-20" value="Departments Responsible" style="text;align=left;verticalAlign=top;spacingLeft=4;spacingRight=4;overflow=hidden;rotatable=0;points=[[0,0.5],[1,0.5]];portConstraint=eastwest;" parent="KCWtiNqGUcv64G_6t2jP-20" vertex="1">
          <mxGeometry y="52" width="160" height="26" as="geometry" />
        </mxCell>
        <mxCell id="hMzGG3SRQMadaM1K5L7l-21" value="Predicated Effort" style="text;align=left;verticalAlign=top;spacingLeft=4;spacingRight=4;overflow=hidden;rotatable=0;points=[[0,0.5],[1,0.5]];portConstraint=eastwest;" parent="KCWtiNqGUcv64G_6t2jP-20" vertex="1">
          <mxGeometry y="78" width="160" height="26" as="geometry" />
        </mxCell>
        <mxCell id="KCWtiNqGUcv64G_6t2jP-23" value="" style="line;html=1;strokeWidth=1;align=left;verticalAlign=middle;spacingTop=-1;spacingLeft=3;spacingRight=3;rotatable=0;labelPosition=right;points=[];portConstraint=eastwest;" parent="KCWtiNqGUcv64G_6t2jP-20" vertex="1">
          <mxGeometry y="104" width="160" height="8" as="geometry" />
        </mxCell>
        <mxCell id="KCWtiNqGUcv64G_6t2jP-24" value="Item" style="swimlane;fontStyle=0;align=center;verticalAlign=top;childLayout=stackLayout;horizontal=1;startSize=26;horizontalStack=0;resizeParent=1;resizeLast=0;collapsible=1;marginBottom=0;rounded=0;shadow=0;strokeWidth=1;fillColor=#e1d5e7;strokeColor=#9673a6;" parent="WIyWlLk6GJQsqaUBKTNV-1" vertex="1">
          <mxGeometry x="960" y="20" width="160" height="130" as="geometry">
            <mxRectangle x="550" y="140" width="160" height="26" as="alternateBounds" />
          </mxGeometry>
        </mxCell>
        <mxCell id="KCWtiNqGUcv64G_6t2jP-25" value="Name" style="text;align=left;verticalAlign=top;spacingLeft=4;spacingRight=4;overflow=hidden;rotatable=0;points=[[0,0.5],[1,0.5]];portConstraint=eastwest;" parent="KCWtiNqGUcv64G_6t2jP-24" vertex="1">
          <mxGeometry y="26" width="160" height="26" as="geometry" />
        </mxCell>
        <mxCell id="KCWtiNqGUcv64G_6t2jP-26" value="Description" style="text;align=left;verticalAlign=top;spacingLeft=4;spacingRight=4;overflow=hidden;rotatable=0;points=[[0,0.5],[1,0.5]];portConstraint=eastwest;rounded=0;shadow=0;html=0;" parent="KCWtiNqGUcv64G_6t2jP-24" vertex="1">
          <mxGeometry y="52" width="160" height="26" as="geometry" />
        </mxCell>
        <mxCell id="B8lW5Eqvo94ZUXRMh3HQ-24" value="Price" style="text;align=left;verticalAlign=top;spacingLeft=4;spacingRight=4;overflow=hidden;rotatable=0;points=[[0,0.5],[1,0.5]];portConstraint=eastwest;" parent="KCWtiNqGUcv64G_6t2jP-24" vertex="1">
          <mxGeometry y="78" width="160" height="26" as="geometry" />
        </mxCell>
        <mxCell id="KCWtiNqGUcv64G_6t2jP-27" value="" style="line;html=1;strokeWidth=1;align=left;verticalAlign=middle;spacingTop=-1;spacingLeft=3;spacingRight=3;rotatable=0;labelPosition=right;points=[];portConstraint=eastwest;" parent="KCWtiNqGUcv64G_6t2jP-24" vertex="1">
          <mxGeometry y="104" width="160" height="8" as="geometry" />
        </mxCell>
        <mxCell id="hMzGG3SRQMadaM1K5L7l-41" value="" style="edgeStyle=orthogonalEdgeStyle;rounded=0;orthogonalLoop=1;jettySize=auto;html=1;endArrow=ERmany;endFill=0;exitX=1;exitY=0.5;exitDx=0;exitDy=0;" parent="WIyWlLk6GJQsqaUBKTNV-1" source="oSte4DSFHgH5YUquC0uS-9" target="KCWtiNqGUcv64G_6t2jP-0" edge="1">
          <mxGeometry relative="1" as="geometry">
            <Array as="points">
              <mxPoint x="-130" y="-320" />
            </Array>
            <mxPoint x="-120" y="-325" as="sourcePoint" />
            <mxPoint x="130" y="-360" as="targetPoint" />
          </mxGeometry>
        </mxCell>
        <mxCell id="hMzGG3SRQMadaM1K5L7l-27" value="Departments" style="swimlane;fontStyle=0;align=center;verticalAlign=top;childLayout=stackLayout;horizontal=1;startSize=26;horizontalStack=0;resizeParent=1;resizeLast=0;collapsible=1;marginBottom=0;rounded=0;shadow=0;strokeWidth=1;fillColor=#e1d5e7;strokeColor=#9673a6;" parent="WIyWlLk6GJQsqaUBKTNV-1" vertex="1">
          <mxGeometry x="-520" y="-360" width="160" height="90" as="geometry">
            <mxRectangle x="550" y="140" width="160" height="26" as="alternateBounds" />
          </mxGeometry>
        </mxCell>
        <mxCell id="hMzGG3SRQMadaM1K5L7l-28" value="Department Info" style="text;align=left;verticalAlign=top;spacingLeft=4;spacingRight=4;overflow=hidden;rotatable=0;points=[[0,0.5],[1,0.5]];portConstraint=eastwest;" parent="hMzGG3SRQMadaM1K5L7l-27" vertex="1">
          <mxGeometry y="26" width="160" height="26" as="geometry" />
        </mxCell>
        <mxCell id="hMzGG3SRQMadaM1K5L7l-31" value="" style="line;html=1;strokeWidth=1;align=left;verticalAlign=middle;spacingTop=-1;spacingLeft=3;spacingRight=3;rotatable=0;labelPosition=right;points=[];portConstraint=eastwest;" parent="hMzGG3SRQMadaM1K5L7l-27" vertex="1">
          <mxGeometry y="52" width="160" height="8" as="geometry" />
        </mxCell>
        <mxCell id="hMzGG3SRQMadaM1K5L7l-34" value="" style="edgeStyle=orthogonalEdgeStyle;rounded=0;orthogonalLoop=1;jettySize=auto;html=1;exitX=1;exitY=0.5;exitDx=0;exitDy=0;endArrow=ERoneToMany;endFill=0;" parent="WIyWlLk6GJQsqaUBKTNV-1" source="oSte4DSFHgH5YUquC0uS-11" target="KCWtiNqGUcv64G_6t2jP-0" edge="1">
          <mxGeometry relative="1" as="geometry">
            <Array as="points">
              <mxPoint x="-80" y="-125" />
              <mxPoint x="-80" y="-240" />
            </Array>
          </mxGeometry>
        </mxCell>
        <mxCell id="hMzGG3SRQMadaM1K5L7l-35" value="" style="edgeStyle=orthogonalEdgeStyle;rounded=0;orthogonalLoop=1;jettySize=auto;html=1;endArrow=ERmany;endFill=0;" parent="WIyWlLk6GJQsqaUBKTNV-1" source="oSte4DSFHgH5YUquC0uS-0" target="KCWtiNqGUcv64G_6t2jP-4" edge="1">
          <mxGeometry relative="1" as="geometry">
            <mxPoint x="300" y="-35" as="sourcePoint" />
            <mxPoint x="570" y="-170" as="targetPoint" />
            <Array as="points">
              <mxPoint x="550" y="-160" />
              <mxPoint x="550" y="-160" />
            </Array>
          </mxGeometry>
        </mxCell>
        <mxCell id="hMzGG3SRQMadaM1K5L7l-36" value="" style="edgeStyle=orthogonalEdgeStyle;rounded=0;orthogonalLoop=1;jettySize=auto;html=1;entryX=0.5;entryY=1;entryDx=0;entryDy=0;endArrow=none;endFill=0;startArrow=none;startFill=0;" parent="WIyWlLk6GJQsqaUBKTNV-1" source="oSte4DSFHgH5YUquC0uS-7" target="KCWtiNqGUcv64G_6t2jP-12" edge="1">
          <mxGeometry x="-0.0005" relative="1" as="geometry">
            <mxPoint as="offset" />
          </mxGeometry>
        </mxCell>
        <mxCell id="hMzGG3SRQMadaM1K5L7l-45" value="Finicial Funding" style="swimlane;fontStyle=0;align=center;verticalAlign=top;childLayout=stackLayout;horizontal=1;startSize=26;horizontalStack=0;resizeParent=1;resizeLast=0;collapsible=1;marginBottom=0;rounded=0;shadow=0;strokeWidth=1;fillColor=#e1d5e7;strokeColor=#9673a6;" parent="WIyWlLk6GJQsqaUBKTNV-1" vertex="1">
          <mxGeometry x="-330" y="70" width="160" height="130" as="geometry">
            <mxRectangle x="550" y="140" width="160" height="26" as="alternateBounds" />
          </mxGeometry>
        </mxCell>
        <mxCell id="hMzGG3SRQMadaM1K5L7l-46" value="Ammount" style="text;align=left;verticalAlign=top;spacingLeft=4;spacingRight=4;overflow=hidden;rotatable=0;points=[[0,0.5],[1,0.5]];portConstraint=eastwest;rounded=0;shadow=0;html=0;" parent="hMzGG3SRQMadaM1K5L7l-45" vertex="1">
          <mxGeometry y="26" width="160" height="26" as="geometry" />
        </mxCell>
        <mxCell id="hMzGG3SRQMadaM1K5L7l-47" value="SourceÂ " style="text;align=left;verticalAlign=top;spacingLeft=4;spacingRight=4;overflow=hidden;rotatable=0;points=[[0,0.5],[1,0.5]];portConstraint=eastwest;rounded=0;shadow=0;html=0;" parent="hMzGG3SRQMadaM1K5L7l-45" vertex="1">
          <mxGeometry y="52" width="160" height="26" as="geometry" />
        </mxCell>
        <mxCell id="hMzGG3SRQMadaM1K5L7l-48" value="Availability" style="text;align=left;verticalAlign=top;spacingLeft=4;spacingRight=4;overflow=hidden;rotatable=0;points=[[0,0.5],[1,0.5]];portConstraint=eastwest;rounded=0;shadow=0;html=0;" parent="hMzGG3SRQMadaM1K5L7l-45" vertex="1">
          <mxGeometry y="78" width="160" height="26" as="geometry" />
        </mxCell>
        <mxCell id="hMzGG3SRQMadaM1K5L7l-50" value="" style="line;html=1;strokeWidth=1;align=left;verticalAlign=middle;spacingTop=-1;spacingLeft=3;spacingRight=3;rotatable=0;labelPosition=right;points=[];portConstraint=eastwest;" parent="hMzGG3SRQMadaM1K5L7l-45" vertex="1">
          <mxGeometry y="104" width="160" height="8" as="geometry" />
        </mxCell>
        <mxCell id="B8lW5Eqvo94ZUXRMh3HQ-0" value="Tracked" style="rhombus;whiteSpace=wrap;html=1;fillColor=#d5e8d4;strokeColor=#82b366;" parent="WIyWlLk6GJQsqaUBKTNV-1" vertex="1">
          <mxGeometry x="880" y="-200" width="80" height="80" as="geometry" />
        </mxCell>
        <mxCell id="B8lW5Eqvo94ZUXRMh3HQ-1" style="edgeStyle=orthogonalEdgeStyle;rounded=0;orthogonalLoop=1;jettySize=auto;html=1;entryX=0;entryY=0.5;entryDx=0;entryDy=0;endArrow=none;endFill=0;startArrow=ERmany;startFill=0;" parent="WIyWlLk6GJQsqaUBKTNV-1" source="KCWtiNqGUcv64G_6t2jP-4" target="B8lW5Eqvo94ZUXRMh3HQ-0" edge="1">
          <mxGeometry relative="1" as="geometry">
            <Array as="points">
              <mxPoint x="850" y="-160" />
              <mxPoint x="850" y="-160" />
            </Array>
          </mxGeometry>
        </mxCell>
        <mxCell id="B8lW5Eqvo94ZUXRMh3HQ-9" value="Working Hours&lt;br&gt;Note&amp;nbsp;" style="whiteSpace=wrap;html=1;fillColor=#fff2cc;strokeColor=#d6b656;" parent="WIyWlLk6GJQsqaUBKTNV-1" vertex="1">
          <mxGeometry x="1300" y="-530" width="120" height="40" as="geometry" />
        </mxCell>
        <mxCell id="B8lW5Eqvo94ZUXRMh3HQ-10" value="" style="edgeStyle=orthogonalEdgeStyle;rounded=0;orthogonalLoop=1;jettySize=auto;html=1;endArrow=none;endFill=0;startArrow=ERmany;startFill=0;" parent="WIyWlLk6GJQsqaUBKTNV-1" source="zkfFHV4jXpPFQw0GAbJ--17" target="B8lW5Eqvo94ZUXRMh3HQ-7" edge="1">
          <mxGeometry relative="1" as="geometry">
            <mxPoint x="700" y="-381" as="sourcePoint" />
            <mxPoint x="1110" y="-190" as="targetPoint" />
          </mxGeometry>
        </mxCell>
        <mxCell id="B8lW5Eqvo94ZUXRMh3HQ-14" style="edgeStyle=orthogonalEdgeStyle;rounded=0;orthogonalLoop=1;jettySize=auto;html=1;exitX=1;exitY=0.5;exitDx=0;exitDy=0;endArrow=none;endFill=0;entryX=0.5;entryY=1;entryDx=0;entryDy=0;" parent="WIyWlLk6GJQsqaUBKTNV-1" source="B8lW5Eqvo94ZUXRMh3HQ-7" target="B8lW5Eqvo94ZUXRMh3HQ-9" edge="1">
          <mxGeometry relative="1" as="geometry">
            <mxPoint x="1331" y="-430" as="sourcePoint" />
            <mxPoint x="1440.04" y="-476.52" as="targetPoint" />
            <Array as="points">
              <mxPoint x="1360" y="-430" />
            </Array>
          </mxGeometry>
        </mxCell>
        <mxCell id="4C2MmLSskRiw0caZgqW9-14" style="edgeStyle=orthogonalEdgeStyle;rounded=0;orthogonalLoop=1;jettySize=auto;html=1;exitX=0.5;exitY=1;exitDx=0;exitDy=0;endArrow=ERmany;endFill=0;" parent="WIyWlLk6GJQsqaUBKTNV-1" source="B8lW5Eqvo94ZUXRMh3HQ-7" target="4C2MmLSskRiw0caZgqW9-2" edge="1">
          <mxGeometry relative="1" as="geometry">
            <Array as="points">
              <mxPoint x="1210" y="-390" />
            </Array>
          </mxGeometry>
        </mxCell>
        <mxCell id="B8lW5Eqvo94ZUXRMh3HQ-7" value="Tracked" style="rhombus;whiteSpace=wrap;html=1;fillColor=#d5e8d4;strokeColor=#82b366;" parent="WIyWlLk6GJQsqaUBKTNV-1" vertex="1">
          <mxGeometry x="1170" y="-470" width="80" height="80" as="geometry" />
        </mxCell>
        <mxCell id="B8lW5Eqvo94ZUXRMh3HQ-16" value="" style="edgeStyle=orthogonalEdgeStyle;rounded=0;orthogonalLoop=1;jettySize=auto;html=1;endArrow=none;endFill=0;startArrow=ERmany;startFill=0;entryX=1;entryY=0.5;entryDx=0;entryDy=0;" parent="WIyWlLk6GJQsqaUBKTNV-1" source="zkfFHV4jXpPFQw0GAbJ--17" target="B8lW5Eqvo94ZUXRMh3HQ-15" edge="1">
          <mxGeometry relative="1" as="geometry">
            <mxPoint x="610" y="-312" as="sourcePoint" />
            <mxPoint x="310" y="-240" as="targetPoint" />
            <Array as="points">
              <mxPoint x="510" y="-661" />
              <mxPoint x="510" y="-661" />
            </Array>
          </mxGeometry>
        </mxCell>
        <mxCell id="B8lW5Eqvo94ZUXRMh3HQ-15" value="Participate" style="rhombus;whiteSpace=wrap;html=1;fillColor=#d5e8d4;strokeColor=#82b366;" parent="WIyWlLk6GJQsqaUBKTNV-1" vertex="1">
          <mxGeometry x="390" y="-701" width="80" height="80" as="geometry" />
        </mxCell>
        <mxCell id="B8lW5Eqvo94ZUXRMh3HQ-17" value="Partial Time Ratio" style="whiteSpace=wrap;html=1;fillColor=#fff2cc;strokeColor=#d6b656;" parent="WIyWlLk6GJQsqaUBKTNV-1" vertex="1">
          <mxGeometry x="370" y="-810" width="120" height="40" as="geometry" />
        </mxCell>
        <mxCell id="B8lW5Eqvo94ZUXRMh3HQ-19" style="edgeStyle=orthogonalEdgeStyle;rounded=0;orthogonalLoop=1;jettySize=auto;html=1;exitX=0.5;exitY=0;exitDx=0;exitDy=0;entryX=0.5;entryY=1;entryDx=0;entryDy=0;endArrow=none;endFill=0;" parent="WIyWlLk6GJQsqaUBKTNV-1" source="B8lW5Eqvo94ZUXRMh3HQ-15" target="B8lW5Eqvo94ZUXRMh3HQ-17" edge="1">
          <mxGeometry relative="1" as="geometry">
            <mxPoint x="920" y="-161" as="sourcePoint" />
            <mxPoint x="920" y="-242" as="targetPoint" />
          </mxGeometry>
        </mxCell>
        <mxCell id="oSte4DSFHgH5YUquC0uS-1" value="" style="edgeStyle=orthogonalEdgeStyle;rounded=0;orthogonalLoop=1;jettySize=auto;html=1;endArrow=none;endFill=0;" parent="WIyWlLk6GJQsqaUBKTNV-1" source="KCWtiNqGUcv64G_6t2jP-0" target="oSte4DSFHgH5YUquC0uS-0" edge="1">
          <mxGeometry relative="1" as="geometry">
            <mxPoint x="310" y="-120" as="sourcePoint" />
            <mxPoint x="580" y="-120" as="targetPoint" />
            <Array as="points" />
          </mxGeometry>
        </mxCell>
        <mxCell id="oSte4DSFHgH5YUquC0uS-0" value="Has a&amp;nbsp;" style="rhombus;whiteSpace=wrap;html=1;fillColor=#d5e8d4;strokeColor=#82b366;" parent="WIyWlLk6GJQsqaUBKTNV-1" vertex="1">
          <mxGeometry x="380" y="-200" width="80" height="80" as="geometry" />
        </mxCell>
        <mxCell id="oSte4DSFHgH5YUquC0uS-4" value="" style="edgeStyle=orthogonalEdgeStyle;rounded=0;orthogonalLoop=1;jettySize=auto;html=1;endArrow=none;endFill=0;" parent="WIyWlLk6GJQsqaUBKTNV-1" source="KCWtiNqGUcv64G_6t2jP-4" target="oSte4DSFHgH5YUquC0uS-2" edge="1">
          <mxGeometry relative="1" as="geometry">
            <Array as="points">
              <mxPoint x="700" y="50" />
              <mxPoint x="700" y="50" />
            </Array>
            <mxPoint x="740" y="-80" as="sourcePoint" />
            <mxPoint x="950" y="89" as="targetPoint" />
          </mxGeometry>
        </mxCell>
        <mxCell id="oSte4DSFHgH5YUquC0uS-2" value="Purchase a" style="rhombus;whiteSpace=wrap;html=1;fillColor=#d5e8d4;strokeColor=#82b366;" parent="WIyWlLk6GJQsqaUBKTNV-1" vertex="1">
          <mxGeometry x="660" y="40" width="80" height="80" as="geometry" />
        </mxCell>
        <mxCell id="oSte4DSFHgH5YUquC0uS-6" style="edgeStyle=orthogonalEdgeStyle;rounded=0;orthogonalLoop=1;jettySize=auto;html=1;endArrow=ERmany;endFill=0;exitX=1;exitY=0.5;exitDx=0;exitDy=0;" parent="WIyWlLk6GJQsqaUBKTNV-1" source="oSte4DSFHgH5YUquC0uS-2" target="KCWtiNqGUcv64G_6t2jP-24" edge="1">
          <mxGeometry relative="1" as="geometry">
            <Array as="points">
              <mxPoint x="870" y="80" />
              <mxPoint x="870" y="80" />
            </Array>
            <mxPoint x="710" y="130" as="sourcePoint" />
          </mxGeometry>
        </mxCell>
        <mxCell id="oSte4DSFHgH5YUquC0uS-8" value="" style="edgeStyle=orthogonalEdgeStyle;rounded=0;orthogonalLoop=1;jettySize=auto;html=1;endArrow=none;endFill=0;startArrow=ERmany;startFill=0;" parent="WIyWlLk6GJQsqaUBKTNV-1" source="KCWtiNqGUcv64G_6t2jP-0" target="oSte4DSFHgH5YUquC0uS-7" edge="1">
          <mxGeometry x="-0.0005" relative="1" as="geometry">
            <mxPoint as="offset" />
            <mxPoint x="70" y="-360" as="sourcePoint" />
            <mxPoint x="-130" y="-380" as="targetPoint" />
            <Array as="points">
              <mxPoint x="-120" y="-410" />
            </Array>
          </mxGeometry>
        </mxCell>
        <mxCell id="oSte4DSFHgH5YUquC0uS-7" value="Propose" style="rhombus;whiteSpace=wrap;html=1;fillColor=#d5e8d4;strokeColor=#82b366;" parent="WIyWlLk6GJQsqaUBKTNV-1" vertex="1">
          <mxGeometry x="-160" y="-540" width="80" height="80" as="geometry" />
        </mxCell>
        <mxCell id="oSte4DSFHgH5YUquC0uS-10" value="" style="edgeStyle=orthogonalEdgeStyle;rounded=0;orthogonalLoop=1;jettySize=auto;html=1;endArrow=none;endFill=0;" parent="WIyWlLk6GJQsqaUBKTNV-1" source="hMzGG3SRQMadaM1K5L7l-27" target="oSte4DSFHgH5YUquC0uS-9" edge="1">
          <mxGeometry relative="1" as="geometry">
            <Array as="points">
              <mxPoint x="-310" y="-320" />
              <mxPoint x="-310" y="-320" />
            </Array>
            <mxPoint x="-210" y="-175" as="sourcePoint" />
            <mxPoint x="150" y="-180" as="targetPoint" />
          </mxGeometry>
        </mxCell>
        <mxCell id="oSte4DSFHgH5YUquC0uS-9" value="Execute a" style="rhombus;whiteSpace=wrap;html=1;fillColor=#d5e8d4;strokeColor=#82b366;" parent="WIyWlLk6GJQsqaUBKTNV-1" vertex="1">
          <mxGeometry x="-210" y="-360" width="80" height="80" as="geometry" />
        </mxCell>
        <mxCell id="oSte4DSFHgH5YUquC0uS-12" value="" style="edgeStyle=orthogonalEdgeStyle;rounded=0;orthogonalLoop=1;jettySize=auto;html=1;exitX=1;exitY=0.5;exitDx=0;exitDy=0;endArrow=none;endFill=0;" parent="WIyWlLk6GJQsqaUBKTNV-1" source="hMzGG3SRQMadaM1K5L7l-20" target="oSte4DSFHgH5YUquC0uS-11" edge="1">
          <mxGeometry relative="1" as="geometry">
            <mxPoint x="-60" y="65" as="sourcePoint" />
            <mxPoint x="150" y="-131" as="targetPoint" />
            <Array as="points">
              <mxPoint x="-370" y="-125" />
              <mxPoint x="-370" y="-125" />
            </Array>
          </mxGeometry>
        </mxCell>
        <mxCell id="oSte4DSFHgH5YUquC0uS-11" value="Has a" style="rhombus;whiteSpace=wrap;html=1;fillColor=#d5e8d4;strokeColor=#82b366;" parent="WIyWlLk6GJQsqaUBKTNV-1" vertex="1">
          <mxGeometry x="-200" y="-165" width="80" height="80" as="geometry" />
        </mxCell>
        <mxCell id="oSte4DSFHgH5YUquC0uS-14" value="" style="edgeStyle=orthogonalEdgeStyle;rounded=0;orthogonalLoop=1;jettySize=auto;html=1;entryX=0.5;entryY=0;entryDx=0;entryDy=0;endArrow=none;endFill=0;" parent="WIyWlLk6GJQsqaUBKTNV-1" source="KCWtiNqGUcv64G_6t2jP-0" target="oSte4DSFHgH5YUquC0uS-13" edge="1">
          <mxGeometry relative="1" as="geometry">
            <Array as="points">
              <mxPoint x="130" y="10" />
              <mxPoint x="130" y="10" />
            </Array>
            <mxPoint x="230" y="54" as="sourcePoint" />
            <mxPoint x="60" y="260" as="targetPoint" />
          </mxGeometry>
        </mxCell>
        <mxCell id="oSte4DSFHgH5YUquC0uS-13" value="Fund a" style="rhombus;whiteSpace=wrap;html=1;fillColor=#d5e8d4;strokeColor=#82b366;" parent="WIyWlLk6GJQsqaUBKTNV-1" vertex="1">
          <mxGeometry x="90" y="-40" width="80" height="80" as="geometry" />
        </mxCell>
        <mxCell id="oSte4DSFHgH5YUquC0uS-16" value="" style="edgeStyle=orthogonalEdgeStyle;rounded=0;orthogonalLoop=1;jettySize=auto;html=1;endArrow=none;endFill=0;" parent="WIyWlLk6GJQsqaUBKTNV-1" source="KCWtiNqGUcv64G_6t2jP-0" target="oSte4DSFHgH5YUquC0uS-15" edge="1">
          <mxGeometry relative="1" as="geometry">
            <Array as="points">
              <mxPoint x="250" y="-140" />
              <mxPoint x="250" y="-140" />
            </Array>
            <mxPoint x="310" y="25" as="sourcePoint" />
            <mxPoint x="640" y="336" as="targetPoint" />
          </mxGeometry>
        </mxCell>
        <mxCell id="4C2MmLSskRiw0caZgqW9-19" style="edgeStyle=orthogonalEdgeStyle;rounded=0;orthogonalLoop=1;jettySize=auto;html=1;exitX=1;exitY=0.5;exitDx=0;exitDy=0;endArrow=ERmany;endFill=0;" parent="WIyWlLk6GJQsqaUBKTNV-1" source="oSte4DSFHgH5YUquC0uS-15" target="KCWtiNqGUcv64G_6t2jP-16" edge="1">
          <mxGeometry relative="1" as="geometry" />
        </mxCell>
        <mxCell id="oSte4DSFHgH5YUquC0uS-15" value="Has a&amp;nbsp;" style="rhombus;whiteSpace=wrap;html=1;fillColor=#d5e8d4;strokeColor=#82b366;" parent="WIyWlLk6GJQsqaUBKTNV-1" vertex="1">
          <mxGeometry x="210" y="-40" width="80" height="80" as="geometry" />
        </mxCell>
        <mxCell id="4C2MmLSskRiw0caZgqW9-2" value="Track" style="swimlane;fontStyle=0;align=center;verticalAlign=top;childLayout=stackLayout;horizontal=1;startSize=26;horizontalStack=0;resizeParent=1;resizeLast=0;collapsible=1;marginBottom=0;rounded=0;shadow=0;strokeWidth=1;fillColor=#e1d5e7;strokeColor=#9673a6;" parent="WIyWlLk6GJQsqaUBKTNV-1" vertex="1">
          <mxGeometry x="1130" y="-230" width="160" height="130" as="geometry">
            <mxRectangle x="550" y="140" width="160" height="26" as="alternateBounds" />
          </mxGeometry>
        </mxCell>
        <mxCell id="4C2MmLSskRiw0caZgqW9-3" value="Quarter" style="text;align=left;verticalAlign=top;spacingLeft=4;spacingRight=4;overflow=hidden;rotatable=0;points=[[0,0.5],[1,0.5]];portConstraint=eastwest;" parent="4C2MmLSskRiw0caZgqW9-2" vertex="1">
          <mxGeometry y="26" width="160" height="26" as="geometry" />
        </mxCell>
        <mxCell id="4C2MmLSskRiw0caZgqW9-4" value="Plan Track Info" style="text;align=left;verticalAlign=top;spacingLeft=4;spacingRight=4;overflow=hidden;rotatable=0;points=[[0,0.5],[1,0.5]];portConstraint=eastwest;rounded=0;shadow=0;html=0;" parent="4C2MmLSskRiw0caZgqW9-2" vertex="1">
          <mxGeometry y="52" width="160" height="26" as="geometry" />
        </mxCell>
        <mxCell id="4C2MmLSskRiw0caZgqW9-5" value="Notes" style="text;align=left;verticalAlign=top;spacingLeft=4;spacingRight=4;overflow=hidden;rotatable=0;points=[[0,0.5],[1,0.5]];portConstraint=eastwest;rounded=0;shadow=0;html=0;" parent="4C2MmLSskRiw0caZgqW9-2" vertex="1">
          <mxGeometry y="78" width="160" height="26" as="geometry" />
        </mxCell>
        <mxCell id="4C2MmLSskRiw0caZgqW9-6" value="" style="line;html=1;strokeWidth=1;align=left;verticalAlign=middle;spacingTop=-1;spacingLeft=3;spacingRight=3;rotatable=0;labelPosition=right;points=[];portConstraint=eastwest;" parent="4C2MmLSskRiw0caZgqW9-2" vertex="1">
          <mxGeometry y="104" width="160" height="8" as="geometry" />
        </mxCell>
        <mxCell id="4C2MmLSskRiw0caZgqW9-9" style="edgeStyle=orthogonalEdgeStyle;rounded=0;orthogonalLoop=1;jettySize=auto;html=1;exitX=1;exitY=0.5;exitDx=0;exitDy=0;endArrow=ERmany;endFill=0;" parent="WIyWlLk6GJQsqaUBKTNV-1" source="B8lW5Eqvo94ZUXRMh3HQ-0" target="4C2MmLSskRiw0caZgqW9-2" edge="1">
          <mxGeometry relative="1" as="geometry">
            <mxPoint x="1350" y="-160" as="sourcePoint" />
            <Array as="points">
              <mxPoint x="1070" y="-160" />
              <mxPoint x="1070" y="-160" />
            </Array>
          </mxGeometry>
        </mxCell>
        <mxCell id="4C2MmLSskRiw0caZgqW9-11" style="edgeStyle=orthogonalEdgeStyle;rounded=0;orthogonalLoop=1;jettySize=auto;html=1;exitX=0.5;exitY=1;exitDx=0;exitDy=0;endArrow=ERmany;endFill=0;" parent="WIyWlLk6GJQsqaUBKTNV-1" source="4C2MmLSskRiw0caZgqW9-10" target="KCWtiNqGUcv64G_6t2jP-4" edge="1">
          <mxGeometry relative="1" as="geometry">
            <Array as="points">
              <mxPoint x="690" y="-270" />
              <mxPoint x="690" y="-270" />
            </Array>
          </mxGeometry>
        </mxCell>
        <mxCell id="4C2MmLSskRiw0caZgqW9-10" value="&lt;div&gt;Participate&lt;/div&gt;" style="rhombus;whiteSpace=wrap;html=1;fillColor=#d5e8d4;strokeColor=#82b366;" parent="WIyWlLk6GJQsqaUBKTNV-1" vertex="1">
          <mxGeometry x="650" y="-440" width="80" height="80" as="geometry" />
        </mxCell>
        <mxCell id="4C2MmLSskRiw0caZgqW9-15" style="edgeStyle=orthogonalEdgeStyle;rounded=0;orthogonalLoop=1;jettySize=auto;html=1;exitX=0.5;exitY=1;exitDx=0;exitDy=0;entryX=1;entryY=0.5;entryDx=0;entryDy=0;endArrow=none;endFill=0;" parent="WIyWlLk6GJQsqaUBKTNV-1" source="4C2MmLSskRiw0caZgqW9-13" target="4C2MmLSskRiw0caZgqW9-10" edge="1">
          <mxGeometry relative="1" as="geometry" />
        </mxCell>
        <mxCell id="4C2MmLSskRiw0caZgqW9-13" value="Role" style="whiteSpace=wrap;html=1;fillColor=#fff2cc;strokeColor=#d6b656;" parent="WIyWlLk6GJQsqaUBKTNV-1" vertex="1">
          <mxGeometry x="760" y="-470" width="120" height="40" as="geometry" />
        </mxCell>
        <mxCell id="4C2MmLSskRiw0caZgqW9-17" style="edgeStyle=orthogonalEdgeStyle;rounded=0;orthogonalLoop=1;jettySize=auto;html=1;exitX=0.5;exitY=1;exitDx=0;exitDy=0;endArrow=none;endFill=0;" parent="WIyWlLk6GJQsqaUBKTNV-1" source="4C2MmLSskRiw0caZgqW9-16" target="B8lW5Eqvo94ZUXRMh3HQ-0" edge="1">
          <mxGeometry relative="1" as="geometry" />
        </mxCell>
        <mxCell id="4C2MmLSskRiw0caZgqW9-16" value="Completion Ratio&lt;br&gt;Note" style="whiteSpace=wrap;html=1;fillColor=#fff2cc;strokeColor=#d6b656;" parent="WIyWlLk6GJQsqaUBKTNV-1" vertex="1">
          <mxGeometry x="860" y="-280" width="120" height="50" as="geometry" />
        </mxCell>
        <mxCell id="g0uIdzXeAHVQxOvOFDWN-3" value="&lt;ul&gt;&lt;li&gt;An Employee supervise the project&amp;nbsp;&lt;/li&gt;&lt;li&gt;An Employee lead the project&lt;/li&gt;&lt;/ul&gt;" style="whiteSpace=wrap;html=1;fillColor=#dae8fc;strokeColor=#6c8ebf;align=left;" vertex="1" parent="WIyWlLk6GJQsqaUBKTNV-1">
          <mxGeometry x="60" y="-690" width="240" height="69" as="geometry" />
        </mxCell>
        <mxCell id="g0uIdzXeAHVQxOvOFDWN-5" value="We calculate the track in a specified quarter" style="whiteSpace=wrap;html=1;fillColor=#dae8fc;strokeColor=#6c8ebf;" vertex="1" parent="WIyWlLk6GJQsqaUBKTNV-1">
          <mxGeometry x="1420" y="-223.5" width="170" height="65" as="geometry" />
        </mxCell>
        <mxCell id="g0uIdzXeAHVQxOvOFDWN-4" style="edgeStyle=orthogonalEdgeStyle;rounded=0;orthogonalLoop=1;jettySize=auto;html=1;dashed=1;" edge="1" parent="WIyWlLk6GJQsqaUBKTNV-1" source="4C2MmLSskRiw0caZgqW9-3" target="g0uIdzXeAHVQxOvOFDWN-5">
          <mxGeometry relative="1" as="geometry">
            <mxPoint x="1400" y="-190" as="targetPoint" />
          </mxGeometry>
        </mxCell>
      </root>
    </mxGraphModel>
  </diagram>
</mxfile>
